<svg xmlns="http://www.w3.org/2000/svg" viewBox="0 0 24 24" fill="currentColor"><path d="M8.69 2C3.89 2 0 5.29 0 9.34c0 2.21 1.17 4.2 3 5.55a.59.59 0 0 1 .21.67l-.39 1.48c-.02.07-.05.14-.05.21 0 .16.13.3.29.3.06 0 .11-.02.17-.05l1.9-1.12c.21-.13.46-.16.7-.1 1.01.27 2.07.41 3.16.4-.2-.74-.31-1.5-.31-2.27 0-4.34 3.89-7.86 8.69-7.86.25 0 .5.01.75.03C17.66 4.36 13.59 2 8.69 2zM5.78 5.99c.64 0 1.16.53 1.16 1.18s-.52 1.18-1.16 1.18-1.16-.53-1.16-1.18.52-1.18 1.16-1.18zm5.81 0c.64 0 1.16.53 1.16 1.18s-.52 1.18-1.16 1.18-1.16-.53-1.16-1.18.52-1.18 1.16-1.18zM16.95 9.16c-4.34 0-7.86 3.13-7.86 7 0 1.34.42 2.59 1.14 3.65.1.16.14.34.07.51l-.34 1.27c-.02.06-.04.12-.04.18 0 .14.11.25.25.25.05 0 .09-.01.14-.03l1.65-.96c.13-.08.27-.1.41-.06.85.27 1.76.42 2.72.42 4.34 0 7.86-3.13 7.86-7s-3.52-7-7.86-7h-.14zM14.42 12.13c.53 0 .97.44.97.98s-.43.98-.97.98-.97-.44-.97-.98.44-.98.97-.98zm4.84 0c.53 0 .97.44.97.98s-.43.98-.97.98-.97-.44-.97-.98.44-.98.97-.98z"/></svg>
